<svg id="Layer_1" data-name="Layer 1" xmlns="http://www.w3.org/2000/svg" viewBox="0 0 22.41029 22.3999">
  <title>icon</title>
  <path d="M22.19495,10.61749L18.80664,7.23242A0.75983,0.75983,0,0,0,17.73114,8.306l2.196,2.19379H7.00885a0.7,0.7,0,1,0,0,1.4H19.92712l-2.196,2.194a0.75978,0.75978,0,0,0,1.0755,1.07349l3.38831-3.385a0.74872,0.74872,0,0,0,.21381-0.58246A0.74823,0.74823,0,0,0,22.19495,10.61749Zm-8.16711,5.39484a0.69545,0.69545,0,0,0-.70312.6875L13.32477,16.7H13.31671v2.89978a1.40091,1.40091,0,0,1-1.40186,1.4H2.80353a1.4009,1.4009,0,0,1-1.40179-1.4V2.79993a1.40082,1.40082,0,0,1,1.40179-1.4h9.11133a1.40083,1.40083,0,0,1,1.40186,1.4v2.9h0.008A0.7033,0.7033,0,0,0,14.731,5.69983c0-.02148-0.01056-0.03961-0.01251-0.06061V2.09991A2.10126,2.10126,0,0,0,12.61584,0H2.1026A2.10134,2.10134,0,0,0,0,2.09991V20.2998a2.10138,2.10138,0,0,0,2.1026,2.1001H12.61584a2.1013,2.1013,0,0,0,2.1026-2.1001V16.76044c0.002-.021.01251-0.03912,0.01251-0.06061A0.69545,0.69545,0,0,0,14.02783,16.01233Z" style="fill: #96a1b0;fill-rule: evenodd"/>
</svg>
