<svg id="Layer_1" data-name="Layer 1" xmlns="http://www.w3.org/2000/svg" viewBox="0 0 22.3999 22.21294">
  <title>icon</title>
  <path d="M17.99036,5.02318L22.1601,0.85344A0.5,0.5,0,1,0,21.453.14635L17.02881,4.57054A15.09217,15.09217,0,0,0,11.2,3.43645C5.0144,3.43645,0,6.884,0,11.13664c0,2.48273,1.71637,4.68475,4.36987,6.09283L0.23981,21.35954a0.5,0.5,0,1,0,.70709.70709l4.3819-4.3819A15.07755,15.07755,0,0,0,11.2,18.83653c6.18561,0,11.19989-3.44739,11.19989-7.69989C22.3999,8.64159,20.66626,6.43028,17.99036,5.02318ZM1.4,11.13652c0-3.47949,4.38763-6.3,9.79993-6.3a14.18376,14.18376,0,0,1,4.76569.79724L13.766,7.83336A4.17913,4.17913,0,0,0,7.89685,13.7025L5.3952,16.20415C2.97607,15.05693,1.4,13.21733,1.4,11.13652Zm12.59991-.00006a2.79406,2.79406,0,0,1-4.40881,2.286l3.8949-3.8949A2.781,2.781,0,0,1,13.99988,11.13646Zm-5.59991,0a2.79849,2.79849,0,0,1,4.3761-2.31317L8.88684,12.71251A2.785,2.785,0,0,1,8.4,11.13646Zm2.79993,6.30011a14.15767,14.15767,0,0,1-4.80884-.81409l2.21-2.21a4.1782,4.1782,0,0,0,5.87482-5.87482l2.48822-2.48822C19.40649,7.19511,21,9.044,21,11.13652,21,14.616,16.6123,17.43657,11.19989,17.43657Z" style="fill: #96a2b0"/>
</svg>
