<svg id="Layer_1" data-name="Layer 1" xmlns="http://www.w3.org/2000/svg" viewBox="0 0 61.67646 112.69651">
  <title>icon</title>
  <g>
    <path d="M42.67646,97.87964v-67.9s-10.68143-1.11621-19.20823,2.1c-9.6853,3.65308-22.20421-.7-22.20421-0.7s0.15867,57.16382.79789,67.9c0,0-2.00785,9.88861,9.849,11.2s21.40724,1.01166,26.23292-1.4S42.67646,104.12824,42.67646,97.87964Z" style="fill: #fff;fill-rule: evenodd"/>
    <path d="M36.14721,17.1647c-1.9247-2.3504-2.4014-6.4212-2.5143-8.6386l-0.0425-.8349,0.7066-.4355a2.50943,2.50943,0,0,0,.4642-0.3714c0.9312-.9427,1.079-3.8753-0.0061-4.9755C33.53421,0.679,29.23311,0,22.64721,0c-6.5893,0-10.8881.6781-12.1043,1.9094a1.47479,1.47479,0,0,0-.1516.1803,2.179,2.179,0,0,0-.1762.3024,3.10121,3.10121,0,0,0-.1583.384c-0.0162.0477-.0318,0.0959-0.0467,0.1458a5.60946,5.60946,0,0,0-.2109,1.346c-0.0041.1023-.006,0.2093-0.005,0.3196a3.32256,3.32256,0,0,0,.7473,2.2996,2.57634,2.57634,0,0,0,.4944.3916l0.6914,0.4159-0.0128.8126c-0.0626,3.97-.9503,7.0199-2.4996,8.5879-3.095,3.1241-7.3367,10.1454-8.1685,14.5176C-0.07829,37.496.448,71.5516,0.94181,96.6561c0.0598,2.8608.0865,4.3143,0.0865,4.7111a8.44376,8.44376,0,0,0,2.8912,6.8966c3.3788,2.9822,9.4437,4.4324,18.54,4.4324q2.7852,0,5.2297-.1909,1.22145-.09525,2.3562-0.238,0.56745-.0714,1.1128-0.1546,1.0908-.1662,2.0937-0.3798,1.00245-.21345,1.9161-0.474,0.91335-.2604,1.7367-0.5678,0.8235-.3072,1.5557-0.6612,0.366-.177.7093-0.3656a11.25693,11.25693,0,0,0,2.7046-2.0176,8.6694,8.6694,0,0,0,.7963-0.9502,8.4399,8.4399,0,0,0,1.5226-4.0028,11.18835,11.18835,0,0,0,.0785-1.3448c0-.3926.0125-2.1025,0.0348-4.7457,0.2055-25.3119.4249-59.5774-.0393-64.8848C43.97821,28.3633,41.09451,23.1953,36.14721,17.1647Zm6.4356,36.3128c-0.0011,2.0183-.0047,4.1021-0.0103,6.219q-0.00345,1.27035-.0078,2.5542c-0.0071,2.1383-.0161,4.2966-0.0264,6.4425q-0.00615,1.2876-.0128,2.5671-0.0036.63915-.007,1.2751-0.0069,1.2717-.0143,2.5258c-0.0516,8.7718-.1164,16.7508-0.1552,21.5276l-0.0141,1.8774c-0.0043.5911-.0081,1.1028-0.0112,1.5271-0.005.7072-.008,1.1713-0.008,1.3542,0,6.2179-6.6807,9.3707-19.8562,9.3707-8.483,0-14.2872-1.3269-17.2512-3.9436a6.4973,6.4973,0,0,1-2.2226-5.4257c0-.3966-0.0373-2.2923-0.086-4.7293-0.7731-39.2099-.7505-60.3517.0695-64.6343,0.6992-3.6808,4.4063-10.2383,7.6275-13.4912,2.8904-2.9211,3.1575-8.4807,3.0594-11.5347l-0.0007-.0227V6.9139A1.17787,1.17787,0,0,0,12.75,5.7488l-1.0608-.3164,0.0669-1.1148,0.0025-.0484,0.0045-.0906,0.0563-.9382,0.8804-.3049c1.0356-.3586,3.7047-0.9603,9.9446-0.9603,6.0914,0,8.8203.5688,9.9048,0.9079l0.9025,0.2822,0.0672,0.8833,0.0053,0.0678c0.004,0.0499.0071,0.0927,0.0096,0.1318s0.0042,0.0743.0051,0.1094l0.027,1.0917-1.0413.295a1.12071,1.12071,0,0,0-.8086.7296,1.49592,1.49592,0,0,0-.0771.485c-0.0009.1461-.0007,0.3055,0.0011,0.477,0.0054,0.5145.0255,1.1371,0.0748,1.829,0.0328,0.4614.0787,0.9535,0.1418,1.4651S32,11.7724,32.102,12.3113q0.07665,0.4041.1698,0.8128c0.1246,0.544.273,1.0901,0.4495,1.627a13.1665,13.1665,0,0,0,.9985,2.3149,9.27307,9.27307,0,0,0,.9192,1.3594q0.4338,0.52875.8462,1.0488,1.2366,1.55925,2.2708,3.0248,0.34395,0.487.6642,0.9615,0.64035,0.9489,1.183,1.8421,0.5421,0.89235.982,1.7218,0.4395,0.8283.7728,1.5866,0.33255,0.757.5549,1.4368a8.34743,8.34743,0,0,1,.4058,1.8417c0.0476,0.5477.0878,1.4333,0.1211,2.6007,0.0166,0.5838.0315,1.238,0.0449,1.9556q0.0135,0.7176.0248,1.5177,0.01155,0.7989.0208,1.6744,0.00945,0.8742.0171,1.8185,0.00765,0.9432.0134,1.9503,0.006,1.0059.0101,2.0694,0.00435,1.06245.007,2.1761c0.0027,1.1126.0043,2.2607,0.005,3.4371q0.00015,0.58815.0002,1.1854T42.58281,53.4775Z" style="fill: #fff"/>
    <g>
      <path d="M55.17255,107.62229H53.34443v5.07422H52.59834v-5.07422H50.77412V107.009h4.39844v0.61328Z" style="fill: #fff"/>
      <path d="M56.98505,107.009l1.85938,4.64063L60.7038,107.009h0.97266v5.6875h-0.75v-2.21484l0.07031-2.39062-1.86719,4.60547H58.55537l-1.86328-4.59375,0.07422,2.37891v2.21484h-0.75V107.009h0.96875Z" style="fill: #fff"/>
    </g>
    <path d="M11.3808,53.15412l-0.14465-6.30231,2.09857,6.91809h1.30261l2.3158-7.16449-0.14478,6.54871v5.13214h2.33636V43.34144H16.0639l-2.06757,6.45618-1.87109-6.45618H9.04443V58.28626H11.3808V53.15412Zm24.611-5.8302a6.58374,6.58374,0,0,0-1.0235-2.15027,5.12124,5.12124,0,0,0-1.70093-1.48322,4.90546,4.90546,0,0,0-2.38245-.55432,5.06538,5.06538,0,0,0-1.64935.25659,4.68024,4.68024,0,0,0-2.37769,1.79114,6.74421,6.74421,0,0,0-.73407,1.37549,8.2167,8.2167,0,0,0-.44452,1.58582,9.81159,9.81159,0,0,0-.1499,1.72437v1.90912a9.442,9.442,0,0,0,.336,2.5354,6.71243,6.71243,0,0,0,1.00281,2.14008,5.0192,5.0192,0,0,0,1.66992,1.48315,4.79763,4.79763,0,0,0,2.35706.55426,4.94382,4.94382,0,0,0,2.38251-.54907,5.02,5.02,0,0,0,1.6955-1.47809A6.65581,6.65581,0,0,0,35.99182,54.319a9.36035,9.36035,0,0,0,.34113-2.54041V49.86951A9.41774,9.41774,0,0,0,35.99182,47.32392Zm-2.15027,4.45471a10.9191,10.9191,0,0,1-.15021,1.6731A5.00969,5.00969,0,0,1,33.21094,54.94a3.01723,3.01723,0,0,1-.90491,1.06763,2.33266,2.33266,0,0,1-1.41083.41052,2.2707,2.2707,0,0,1-1.39081-.41052,2.90977,2.90977,0,0,1-.87878-1.07269,5.27046,5.27046,0,0,1-.45959-1.48828,11.24416,11.24416,0,0,1-.14478-1.668V49.84894a11.71528,11.71528,0,0,1,.13928-1.66791,5.09035,5.09035,0,0,1,.45477-1.48322,2.87535,2.87535,0,0,1,.87885-1.06238,2.29011,2.29011,0,0,1,1.39081-.4054,2.35269,2.35269,0,0,1,1.41071.4054,2.98333,2.98333,0,0,1,.905,1.05731,5.0422,5.0422,0,0,1,.48578,1.48309,10.4842,10.4842,0,0,1,.15515,1.6731v1.92969ZM9.42694,64.3631V79.308H19.0827v-2.0119H11.90814V64.3631H9.42694ZM34.96832,66.195a5.12053,5.12053,0,0,0-1.70093-1.483,4.90816,4.90816,0,0,0-2.38245-.5542,5.06867,5.06867,0,0,0-1.64935.25647,4.68426,4.68426,0,0,0-2.37769,1.79089,6.74213,6.74213,0,0,0-.73407,1.37543,8.22037,8.22037,0,0,0-.44452,1.58618,9.81432,9.81432,0,0,0-.1499,1.72443v1.90918a9.44252,9.44252,0,0,0,.336,2.53534,6.70333,6.70333,0,0,0,1.00281,2.13965,5.01466,5.01466,0,0,0,1.66992,1.48364,4.7983,4.7983,0,0,0,2.35706.55426,4.9514,4.9514,0,0,0,2.38251-.54877,5.02129,5.02129,0,0,0,1.6955-1.47809,6.65393,6.65393,0,0,0,1.01862-2.146,9.359,9.359,0,0,0,.34113-2.54V70.89124a9.416,9.416,0,0,0-.34113-2.54553A6.5848,6.5848,0,0,0,34.96832,66.195Zm-1.12677,6.60541a10.91831,10.91831,0,0,1-.15021,1.673,5.01084,5.01084,0,0,1-.48041,1.48828A3.01808,3.01808,0,0,1,32.306,77.0293a2.33184,2.33184,0,0,1-1.41083.41052,2.26991,2.26991,0,0,1-1.39081-.41052,2.90639,2.90639,0,0,1-.87878-1.073A5.26429,5.26429,0,0,1,28.166,74.468a11.23916,11.23916,0,0,1-.14478-1.6676V70.87061a11.71868,11.71868,0,0,1,.13928-1.66815,5.086,5.086,0,0,1,.45477-1.48291,2.87511,2.87511,0,0,1,.87885-1.06274,2.2904,2.2904,0,0,1,1.39081-.40509,2.353,2.353,0,0,1,1.41071.40509,2.98365,2.98365,0,0,1,.905,1.05725,5.04362,5.04362,0,0,1,.48578,1.48358,10.482,10.482,0,0,1,.15515,1.673v1.92981ZM20.04413,85.3844h-3.029L13.0556,90.609l-1.37488,1.7757V85.3844H9.16852v14.94495h2.51221V95.62824l1.61261-1.7962,4.0318,6.49731h2.97742l-5.37573-8.38593Zm14.92419,1.83252A5.12488,5.12488,0,0,0,33.2674,85.7334a4.90749,4.90749,0,0,0-2.38245-.55426,5.067,5.067,0,0,0-1.64935.25659,4.68315,4.68315,0,0,0-2.37769,1.79077,6.78171,6.78171,0,0,0-.73407,1.37555,8.23391,8.23391,0,0,0-.44452,1.58618,9.81159,9.81159,0,0,0-.1499,1.72437v1.90912a9.44186,9.44186,0,0,0,.336,2.53534,6.70275,6.70275,0,0,0,1.00281,2.13977,5.01381,5.01381,0,0,0,1.66992,1.48358,4.79761,4.79761,0,0,0,2.35706.5542,4.9521,4.9521,0,0,0,2.38251-.54877,5.02,5.02,0,0,0,1.6955-1.47809,6.65239,6.65239,0,0,0,1.01862-2.14594,9.35489,9.35489,0,0,0,.34113-2.5401V91.9126a9.41742,9.41742,0,0,0-.34113-2.54559A6.58455,6.58455,0,0,0,34.96832,87.21692Zm-1.12677,6.6048a10.91772,10.91772,0,0,1-.15021,1.6731,5.01066,5.01066,0,0,1-.48041,1.48834A3.01713,3.01713,0,0,1,32.306,98.0506a2.33148,2.33148,0,0,1-1.41083.41064,2.26956,2.26956,0,0,1-1.39081-.41064,2.90491,2.90491,0,0,1-.87878-1.073,5.2568,5.2568,0,0,1-.45959-1.48755,11.24682,11.24682,0,0,1-.14478-1.66833V91.892a11.72848,11.72848,0,0,1,.13928-1.66821,5.09352,5.09352,0,0,1,.45477-1.48291,2.88028,2.88028,0,0,1,.87885-1.06268,2.29487,2.29487,0,0,1,1.39081-.40509,2.3576,2.3576,0,0,1,1.41071.40509,2.99174,2.99174,0,0,1,.905,1.05792,5.03982,5.03982,0,0,1,.48578,1.48291,10.482,10.482,0,0,1,.15515,1.673v1.92969Z" style="fill: #333c4c"/>
  </g>
</svg>
