<svg id="Layer_1" data-name="Layer 1" xmlns="http://www.w3.org/2000/svg" viewBox="0 0 22.3999 15.40009">
  <title>icon</title>
  <path d="M11.2,0C5.0144,0,0,3.44751,0,7.7002c0,4.2525,5.0144,7.69989,11.2,7.69989S22.3999,11.9527,22.3999,7.7002C22.3999,3.44751,17.38562,0,11.2,0ZM11.19989,14.00012c-5.41229,0-9.79987-2.82062-9.79987-6.3s4.38757-6.3,9.79987-6.3S21,4.22058,21,7.70007,16.6123,14.00012,11.19989,14.00012Zm0-10.50024a4.20007,4.20007,0,1,0,4.2,4.2002A4.20017,4.20017,0,0,0,11.19989,3.49988Zm0,7a2.8,2.8,0,1,1,2.8-2.79987A2.79978,2.79978,0,0,1,11.19989,10.49988Z" style="fill: #96a2b0;fill-rule: evenodd"/>
</svg>
