<svg id="Layer_1" data-name="Layer 1" xmlns="http://www.w3.org/2000/svg" viewBox="0 0 73.24197 58.38028">
  <title>icon</title>
  <path d="M10.24792,4a0.96009,0.96009,0,0,1,.9304.72079A7.94107,7.94107,0,0,0,14.013,8.87888H27.73569A7.855,7.855,0,0,0,30.564,4.72079a0.97442,0.97442,0,0,1,.93356-0.7207l0.042,0.001a0.959,0.959,0,0,1,.89978.81372,14.48229,14.48229,0,0,1,.1358,4.06409h4.24733a0.95929,0.95929,0,0,1,.93388,1.17517,15.67722,15.67722,0,0,1-1.85283,4.42322H58.78065c2.43636,0,10.46132,3.191,10.46132,10.23633v4.994a0.95825,0.95825,0,1,1-1.9165,0v-4.994a7.74557,7.74557,0,0,0-3.57056-6.28583c-0.26813-.1911-0.53522-0.3645-0.79779-0.52148a11.19048,11.19048,0,0,1,1.25586,5.8468V49.183c0,3.30341-3.3811,4.63782-4.79126,4.63782a0.95387,0.95387,0,0,1-.88715-0.59692L53.82638,41.66537H29.9545v5.75769c0,4.546-2.34039,5.81158-5.168,6.894a0.94142,0.94142,0,0,1-.3421.06323,0.95692,0.95692,0,0,1-.92809-0.72113l-4.76253-18.521c-7.80279-.99567-8.20422-7.37891-8.20422-8.66656V17.99576C5.722,17.179,4.09482,10.35257,4.0261,10.054A0.9598,0.9598,0,0,1,4.96,8.87888H9.1672a14.51914,14.51914,0,0,1,.13567-4.06409,0.95738,0.95738,0,0,1,.89991-0.81372L10.24792,4m25.281,6.79807H29.87228a5.63343,5.63343,0,0,1-11.2063,0H6.25522c0.64238,1.80359,2.28618,5.3576,5.25268,5.3576a0.96017,0.96017,0,0,1,.9583.95959v9.35632c0,6.3819,6.44862,6.87756,8.425,6.87756s8.42511-.49567,8.42511-6.87756V17.11526a0.96,0.96,0,0,1,.95819-0.95959c2.97192,0,4.61328-3.554,5.25439-5.3576M20.8912,35.26846c-0.04193,0-.08348,0-0.12486-0.00049L25.0997,52.12039c1.7453-.76184,2.93829-1.71021,2.93829-4.69733V40.70566a0.95988,0.95988,0,0,1,.9583-0.95947h1.17482a6.88371,6.88371,0,0,1,13.73369,0H54.47031a0.95382,0.95382,0,0,1,.88708.59686l4.65942,11.4386A2.872,2.872,0,0,0,62.29648,49.183V23.75308c0-2.80634-.52271-4.63879-1.59734-5.60223a5.58141,5.58141,0,0,0-1.76326-.99438,8.17872,8.17872,0,0,1,.46173,2.69861,8.30986,8.30986,0,0,1-16.6189-.00092,8.17462,8.17462,0,0,1,.771-3.45758H34.58578a0.92865,0.92865,0,0,1-.21588-0.02582,6.01859,6.01859,0,0,1-3.13708,1.62451v8.47632c0,1.469-.4986,8.79688-10.34161,8.79688m3.55322-14.51379a1.73886,1.73886,0,1,1-1.73633,1.73877,1.73984,1.73984,0,0,1,1.73633-1.73877m-6.888,0a1.73886,1.73886,0,1,1-1.73633,1.73877,1.73978,1.73978,0,0,1,1.73633-1.73877m38.89215,10.686a3.0831,3.0831,0,1,1-3.07886,3.08313,3.08467,3.08467,0,0,1,3.07886-3.08313M10.24808,0h-0.094l-0.13884.00546a4.97275,4.97275,0,0,0-4.66753,4.212q-0.051.33458-.09219,0.66141H4.96A4.95981,4.95981,0,0,0,.12777,10.95013c0.18984,0.82462,1.74446,6.97174,6.42182,9.76291v5.75854a12.26331,12.26331,0,0,0,8.946,12.05722l4.14679,16.1265a4.95761,4.95761,0,0,0,6.597,3.38858c2.48883-.95267,7.71513-2.95331,7.71513-10.62082V45.66537H51.13663l3.6935,9.06744a4.93636,4.93636,0,0,0,4.5916,3.088c3.59311,0,8.79126-3.076,8.79126-8.63782V34.66666l0.0708,0.00049A4.96451,4.96451,0,0,0,73.242,29.70755v-4.994c0-9.8588-10.47858-14.23633-14.46132-14.23633H41.73973a4.95954,4.95954,0,0,0-4.9173-5.59839H36.48674q-0.04166-.33-0.09331-0.66818A4.97783,4.97783,0,0,0,31.74153.00616l-0.10094-.0051-0.143-.001a4.959,4.959,0,0,0-4.79646,3.68216,5.06544,5.06544,0,0,1-.56,1.19662h-10.532A5.17893,5.17893,0,0,1,15.035,3.65967,4.96016,4.96016,0,0,0,10.24808,0h0Z" style="fill: #fff"/>
</svg>
