<svg id="Layer_1" data-name="Layer 1" xmlns="http://www.w3.org/2000/svg" viewBox="0 0 22.39639 21.6986">
  <title>icon</title>
  <path d="M11.19806,1.3973l2.9914,6.1726,6.8011,0.9625-4.9043,4.9339,1.1285,6.8311-6.0177-3.112-6.0179,3.1129,1.1286-6.832L1.40536,8.5324l6.8013-.9625,2.9914-6.1726M11.19756,0A1.6221,1.6221,0,0,0,9.734.9058L7.20106,6.1644l-5.8285.8671A1.60885,1.60885,0,0,0,.08366,8.0892a1.54319,1.54319,0,0,0,.376,1.5988L4.73,13.9536l-0.9906,5.9149a1.56008,1.56008,0,0,0,.6639,1.5423,1.65452,1.65452,0,0,0,1.7136.0918l5.0807-2.6486,5.0817,2.6486a1.65613,1.65613,0,0,0,1.7145-.0918,1.55841,1.55841,0,0,0,.662-1.5423l-0.9905-5.9149,4.2722-4.2656a1.543,1.543,0,0,0,.3751-1.5988,1.609,1.609,0,0,0-1.289-1.0577l-5.8275-.8671-2.5338-5.2586A1.62054,1.62054,0,0,0,11.19756,0h0Z" style="fill: #fff"/>
</svg>
