<svg id="Layer_1" data-name="Layer 1" xmlns="http://www.w3.org/2000/svg" viewBox="0 0 19.98953 20.15918">
  <title>icon</title>
  <path d="M19.66952,5.116L10.319,0.07408A0.62874,0.62874,0,0,0,10.21623.04a0.62074,0.62074,0,0,0-.0944-0.0311,0.92154,0.92154,0,0,0-.2541,0A0.61594,0.61594,0,0,0,9.77343.04a0.63091,0.63091,0,0,0-.103.0341L0.32,5.116a0.625,0.625,0,0,0-.2342.8608,0.64511,0.64511,0,0,0,.8741.2307l2.1576-1.1633L1.81333,4.77v13.4854a1.98469,1.98469,0,0,0,1.9381,1.9038H16.238a1.88178,1.88178,0,0,0,1.873-1.8906V4.78138l-1.2272.2692,2.1458,1.1569a0.64511,0.64511,0,0,0,.8741-0.2307A0.625,0.625,0,0,0,19.66952,5.116Zm-7.8017,13.7827H8.12173v-4.4115a0.62732,0.62732,0,0,1,.6244-0.6302h2.4973a0.62732,0.62732,0,0,1,.6244.6302v4.4115Zm4.9946-1.2603a1.25451,1.25451,0,0,1-1.2486,1.2603h-2.4974V13.857a1.25468,1.25468,0,0,0-1.2486-1.2605H8.12173A1.2547,1.2547,0,0,0,6.873,13.857v5.0417H4.37573a1.25453,1.25453,0,0,1-1.2487-1.2603V5.039l6.8677-3.7031,6.8677,3.7031v12.5994Zm-9.365-10.0837a2.49746,2.49746,0,1,0,2.4973-2.5209A2.50923,2.50923,0,0,0,7.49743,7.55468Zm3.746,0a1.24871,1.24871,0,1,1-1.2487-1.2605A1.25455,1.25455,0,0,1,11.24343,7.55468Z" style="fill: #fff"/>
</svg>
