<svg id="Layer_1" data-name="Layer 1" xmlns="http://www.w3.org/2000/svg" viewBox="0 0 35 35">
  <title>icon</title>
  <g>
    <path d="M17.5,0A17.5,17.5,0,1,1,0,17.5,17.5,17.5,0,0,1,17.5,0Z" style="fill: #fff;fill-rule: evenodd"/>
    <path d="M25.2,17.5001c0-4.2526-6.3711-11.2-7.7-11.2-1.3644,0-7.7,6.9474-7.7,11.2a7.69828,7.69828,0,0,0,7,7.6647v2.8353a0.7,0.7,0,1,0,1.4,0V25.1648A7.6982,7.6982,0,0,0,25.2,17.5001Zm-7,6.2587V21.2226l2.5986-2.5986a0.667,0.667,0,0,0-.9434-0.9432L18.2,19.336V14.0001a0.7,0.7,0,0,0-1.4,0v3.2626l-1.6611-1.6611a0.66355,0.66355,0,0,0-.9385.9383l2.1597,2.1598a0.65848,0.65848,0,0,0,.4399.1886v2.0631a0.64716,0.64716,0,0,0,0,.1511v2.6563a6.30732,6.30732,0,0,1-5.6-6.2587c0-3.2028,4.6777-8.6804,6.2947-9.7038C19.1151,8.8332,23.8,14.3248,23.8,17.5001A6.30732,6.30732,0,0,1,18.2,23.7588Z" style="fill: #333c4c"/>
  </g>
</svg>
